<svg width="1421" height="239" viewBox="0 0 1421 239" fill="none" xmlns="http://www.w3.org/2000/svg">
<path d="M9.25 177V1.99999H59.25C96.75 1.99999 128 22 128 63.75C128 105.5 96.75 125.25 59 125.25H37.75V177H9.25ZM37.75 99.5H57.5C82 99.5 100.25 88.75 100.25 63.75C100.25 38.5 82 27.5 57.5 27.5H37.75V99.5ZM142.348 177V52H167.598V177H142.348ZM137.598 21.75C137.598 11.75 144.848 4.75 154.848 4.75C164.848 4.75 172.348 11.75 172.348 21.75C172.348 31.5 164.848 38.75 154.848 38.75C144.848 38.75 137.598 31.5 137.598 21.75ZM188.449 177V52H213.449V80.75C221.449 60.5 241.199 49.5 263.699 49.5V74C244.199 74 215.199 84.5 213.449 129.25V177H188.449ZM322.963 179.5C288.713 179.5 265.963 150.5 265.963 114.5C265.963 78.5 288.713 49.5 322.963 49.5C339.963 49.5 352.463 56.75 360.713 68.25V52H384.713V177H360.713V160.75C352.463 172.25 339.963 179.5 322.963 179.5ZM290.713 114.5C290.713 140.75 305.713 158 325.463 158C344.463 158 360.713 143 360.713 114.5C360.713 87.25 344.463 71 325.463 71C305.713 71 290.713 88.25 290.713 114.5ZM491.793 110.5C491.793 84.75 482.543 71.5 463.293 71.5C446.293 71.5 428.293 89 428.293 113V177H403.293V52H428.293V72.5C437.793 58.5 454.043 49.5 469.793 49.5C498.793 49.5 517.043 68.75 517.043 107V177H491.793V110.5Z" fill="#18293A"/>
<path d="M573.25 17.5H691.5C688.75 32 685 50.5 681.75 64.25H680.25L674 21.25H638L600.5 170.75C606 172 614 174 619.75 175.75L619.5 177H565L565.25 175.75C572 174 580.75 172 586.75 170.75L624.25 21.25H588.5L560.25 64.25H558.75C562.5 50.5 568.25 32 573.25 17.5ZM741.605 171L773.605 145.5L774.605 146.25C769.855 155.25 744.355 179.5 736.855 179.5C731.355 179.5 727.355 175.75 728.855 170.75L738.355 132.25C722.105 162.25 702.855 179.5 687.855 179.5C675.105 179.5 666.855 168.75 666.855 146.25C666.855 101.25 697.855 62.5 731.605 62.5C740.105 62.5 747.605 65.5 753.355 72L754.355 68.25L768.855 63.75L741.605 171ZM695.105 169.25C706.105 169.25 722.105 157.25 741.105 121.25L751.105 81.75C747.105 70.25 739.355 65.75 730.855 65.75C702.355 65.75 680.605 110.25 680.605 145.25C680.605 162.25 685.855 169.25 695.105 169.25ZM864.508 62.5C869.258 62.5 873.508 64 876.508 66.25L866.008 106H864.508C867.008 80.75 865.008 72.5 857.258 72.5C846.008 72.5 831.758 85 815.758 121.25L802.008 176L788.758 178.75L814.758 74.75L784.508 94L784.008 92.75C794.258 81.25 805.758 71.25 819.258 63.75C825.758 64.25 829.008 69 827.008 76.5L819.258 107.75C832.008 80 847.758 62.5 864.508 62.5ZM951.811 171L983.811 145.5L984.811 146.25C980.061 155.25 954.561 179.5 947.061 179.5C941.561 179.5 937.561 175.75 939.061 170.75L948.561 132.25C932.311 162.25 913.061 179.5 898.061 179.5C885.311 179.5 877.061 168.75 877.061 146.25C877.061 101.25 908.061 62.5 941.811 62.5C950.311 62.5 957.811 65.5 963.561 72L964.561 68.25L979.061 63.75L951.811 171ZM905.311 169.25C916.311 169.25 932.311 157.25 951.311 121.25L961.311 81.75C957.311 70.25 949.561 65.75 941.061 65.75C912.561 65.75 890.811 110.25 890.811 145.25C890.811 162.25 896.061 169.25 905.311 169.25ZM1038.71 179.5C1028.21 179.5 1020.71 176.5 1014.21 170.75L1001.71 221.25C1008.71 222.5 1018.46 224 1024.96 225.75V227H971.213V225.75C977.213 224 983.963 222.5 988.963 221.25L1025.71 74.75L994.713 94L993.963 92.75C1004.71 81 1016.46 71.25 1029.96 63.75C1036.71 64.25 1039.71 69 1037.71 76.75L1029.21 111C1047.21 78.5 1065.96 62.5 1082.46 62.5C1097.21 62.5 1104.96 74.75 1104.96 96.25C1104.96 144.25 1073.46 179.5 1038.71 179.5ZM1075.46 72.25C1062.71 72.25 1046.96 83.75 1026.46 122.25L1016.21 162.5C1020.71 171.75 1028.46 176 1038.96 176C1068.71 176 1091.21 137.5 1091.21 97.25C1091.21 81 1086.96 72.25 1075.46 72.25ZM1160.24 179.5C1136.24 179.5 1121.99 161.25 1121.99 133C1121.99 94.75 1148.24 62.5 1180.24 62.5C1204.49 62.5 1218.49 81 1218.49 109C1218.49 147.25 1192.24 179.5 1160.24 179.5ZM1160.74 175.75C1186.24 175.75 1204.99 139.75 1204.99 104.25C1204.99 81 1196.49 66.25 1179.99 66.25C1154.24 66.25 1135.49 102.25 1135.49 137.5C1135.49 161.25 1144.24 175.75 1160.74 175.75ZM1314.21 62.5C1318.96 62.5 1323.21 64 1326.21 66.25L1315.71 106H1314.21C1316.71 80.75 1314.71 72.5 1306.96 72.5C1295.71 72.5 1281.46 85 1265.46 121.25L1251.71 176L1238.46 178.75L1264.46 74.75L1234.21 94L1233.71 92.75C1243.96 81.25 1255.46 71.25 1268.96 63.75C1275.46 64.25 1278.71 69 1276.71 76.5L1268.96 107.75C1281.71 80 1297.46 62.5 1314.21 62.5ZM1363.02 171.25C1374.52 171.25 1386.52 165.25 1407.52 142.25L1408.77 143C1391.27 171 1375.52 179.5 1359.77 179.5C1340.77 179.5 1328.02 165.5 1328.02 139C1328.02 96.5 1359.02 62.5 1391.02 62.5C1406.27 62.5 1416.02 71 1416.02 83C1416.02 103.5 1389.27 120.25 1342.27 127.25C1342.02 130.75 1341.77 134.25 1341.77 137.75C1341.77 162.5 1351.27 171.25 1363.02 171.25ZM1389.52 66C1367.02 66 1347.52 93.25 1342.77 123.75C1387.77 116 1404.02 97 1404.02 81.25C1404.02 72 1399.27 66 1389.52 66Z" fill="#18293A"/>
</svg>
